<?xml version="1.0" encoding="iso-8859-1"?>
<!-- Generator: Adobe Illustrator 16.0.4, SVG Export Plug-In . SVG Version: 6.00 Build 0)  -->
<!DOCTYPE svg PUBLIC "-//W3C//DTD SVG 1.1//EN" "http://www.w3.org/Graphics/SVG/1.1/DTD/svg11.dtd">
<svg version="1.1" xmlns="http://www.w3.org/2000/svg" xmlns:xlink="http://www.w3.org/1999/xlink" x="0px" y="0px" width="28px"
	 height="28px" viewBox="0 0 28 28" style="enable-background:new 0 0 28 28;" xml:space="preserve">
<g id="decimal">
	<g>
		<path d="M23.252,1H4.748C2.678,1,1,2.678,1,4.748v18.504C1,25.321,2.678,27,4.748,27h18.504C25.321,27,27,25.321,27,23.252V4.748
			C27,2.678,25.321,1,23.252,1z M14,22h-2v-2h2V22z M10,22H7V11H4V8.984C5,8.942,5.509,8.88,5.882,8.797
			c0.596-0.132,1.04-0.396,1.413-0.791c0.256-0.271,0.431-0.791,0.562-1.242C7.933,6.493,7.951,6,7.951,6H10V22z M24.193,19.764
			c-0.773,1.346-2.068,2.252-3.99,2.252c-1.921,0-3.321-0.906-4.095-2.252s-1.16-3.264-1.16-5.754s0.387-4.411,1.16-5.764
			c0.773-1.354,2.158-2.215,4.079-2.215c1.922,0,3.232,0.861,4.006,2.215c0.773,1.353,1.16,3.273,1.16,5.764
			S24.967,18.418,24.193,19.764z"/>
		<path d="M20.15,8.662c-0.881,0-1.464,0.437-1.748,1.311s-0.427,2.22-0.427,4.037c0,1.734,0.143,3.061,0.427,3.98
			c0.284,0.918,0.867,1.379,1.748,1.379s1.459-0.461,1.732-1.379c0.274-0.92,0.411-2.246,0.411-3.98
			c0-1.817-0.137-3.163-0.411-4.037C21.609,9.099,21.031,8.662,20.15,8.662z"/>
	</g>
</g>
<g id="Layer_1">
</g>
</svg>
