<?xml version="1.0" encoding="iso-8859-1"?>
<!-- Generator: Adobe Illustrator 16.0.4, SVG Export Plug-In . SVG Version: 6.00 Build 0)  -->
<!DOCTYPE svg PUBLIC "-//W3C//DTD SVG 1.1//EN" "http://www.w3.org/Graphics/SVG/1.1/DTD/svg11.dtd">
<svg version="1.1" xmlns="http://www.w3.org/2000/svg" xmlns:xlink="http://www.w3.org/1999/xlink" x="0px" y="0px" width="28px"
	 height="28px" viewBox="0 0 28 28" style="enable-background:new 0 0 28 28;" xml:space="preserve">
<g id="file-upload">
	<g>
		<path d="M25.254,11h-4.533H14H4L1,24.801C1,25.66,1.775,27,2.757,27h8.826h9.671c0.981,0,2.439-1.213,2.746-2.191L27,13
			C27,12.135,26.234,11,25.254,11z"/>
		<path d="M12,9h3V7h-4V6.949C11,6.091,10.235,5,9.254,5H8.016H5.721H2.757C1.775,5,1,6.091,1,6.949v0.228v0.582v1.184v8.873
			C1,18.174,3,9,3,9H12z"/>
		<path d="M20,9h2.721H25V8.999C25,8.133,24.234,7,23.254,7H20V9z"/>
		<path d="M16,6v4h3V6h2.536c0.136,0,0.18,0.056,0.097-0.049l-4.008-4.889c-0.083-0.104-0.219-0.069-0.304,0.035l-4.007,4.837
			C13.232,6.039,13.275,6,13.411,6H16z"/>
	</g>
</g>
<g id="Layer_1">
</g>
</svg>
