<?xml version="1.0" encoding="iso-8859-1"?>
<!-- Generator: Adobe Illustrator 16.0.4, SVG Export Plug-In . SVG Version: 6.00 Build 0)  -->
<!DOCTYPE svg PUBLIC "-//W3C//DTD SVG 1.1//EN" "http://www.w3.org/Graphics/SVG/1.1/DTD/svg11.dtd">
<svg version="1.1" xmlns="http://www.w3.org/2000/svg" xmlns:xlink="http://www.w3.org/1999/xlink" x="0px" y="0px" width="28px"
	 height="28px" viewBox="0 0 28 28" style="enable-background:new 0 0 28 28;" xml:space="preserve">
<g id="text">
	<path style="fill:none;" d="M6.166,11l-2.285,6h1.301l0.535-2h2.1l0.536,2h1.341L7.4,11H6.166z M6.077,14.192l0.698-1.984
		l0.692,1.984H6.077z"/>
	<path style="fill:none;" d="M14.012,13.489c0.161-0.104,0.295-0.232,0.399-0.383c0.155-0.226,0.234-0.498,0.234-0.81
		c0-0.511-0.173-0.781-0.514-1.041C13.802,11.005,13.362,11,12.826,11H10v6h2.674c0.376,0,0.708-0.188,0.988-0.274
		c0.281-0.086,0.516-0.279,0.698-0.431c0.186-0.153,0.325-0.375,0.412-0.587c0.085-0.208,0.128-0.452,0.128-0.694
		c0-0.414-0.099-0.773-0.294-1.051C14.458,13.753,14.259,13.589,14.012,13.489z M11,12h1.682c0.241,0,0.424-0.039,0.544,0.059
		c0.113,0.092,0.17,0.183,0.17,0.43c0,0.219-0.064,0.298-0.196,0.411C13.063,13.016,12.893,13,12.682,13H11V12z M13.44,15.606
		C13.296,15.74,13.086,16,12.818,16H11v-2h1.818c0.27,0,0.479,0.123,0.623,0.253c0.142,0.128,0.21,0.339,0.21,0.586
		C13.651,15.095,13.582,15.475,13.44,15.606z"/>
	<path style="fill:none;" d="M19.437,14.256c-0.021,0.194-0.063,0.452-0.129,0.623c-0.064,0.167-0.153,0.351-0.266,0.474
		c-0.107,0.121-0.241,0.236-0.397,0.307c-0.152,0.069-0.333,0.113-0.539,0.113c-0.281,0-0.525-0.053-0.726-0.164
		c-0.202-0.111-0.37-0.261-0.497-0.448c-0.129-0.194-0.227-0.415-0.289-0.659c-0.063-0.25-0.096-0.507-0.096-0.768
		s0.032-0.519,0.096-0.768c0.062-0.245,0.16-0.466,0.289-0.659c0.127-0.188,0.295-0.34,0.497-0.452
		c0.201-0.111,0.445-0.168,0.726-0.168c0.191,0,0.362,0.026,0.506,0.077c0.145,0.052,0.266,0.121,0.371,0.213
		c0.105,0.091,0.192,0.2,0.259,0.324c0.07,0.128,0.126,0.361,0.166,0.517L19.432,13h1.233l-0.015-0.228
		c-0.033-0.325-0.122-0.663-0.262-0.916c-0.141-0.251-0.327-0.492-0.557-0.671c-0.227-0.177-0.491-0.324-0.786-0.415
		c-0.294-0.092-0.61-0.144-0.94-0.144c-0.441,0-0.846,0.082-1.2,0.25c-0.351,0.166-0.653,0.393-0.899,0.677
		c-0.243,0.282-0.433,0.614-0.562,0.991c-0.129,0.374-0.194,0.774-0.194,1.191c0,0.422,0.065,0.825,0.194,1.199
		c0.13,0.376,0.319,0.709,0.562,0.991c0.248,0.285,0.551,0.512,0.9,0.674c0.354,0.164,0.757,0.247,1.199,0.247
		c0.363,0,0.699-0.059,0.997-0.176c0.303-0.118,0.569-0.287,0.792-0.502c0.224-0.216,0.403-0.475,0.534-0.77
		c0.13-0.292,0.208-0.765,0.23-1.122L20.667,14h-1.219L19.437,14.256z"/>
	<g>
		<path d="M13.201,12.899c0.132-0.112,0.196-0.192,0.196-0.411c0-0.247-0.057-0.338-0.17-0.43C13.106,11.961,12.923,12,12.682,12H11
			v1h1.682C12.893,13,13.063,13.016,13.201,12.899z"/>
		<path d="M12.818,14H11v2h1.818c0.269,0,0.478-0.26,0.622-0.394c0.142-0.132,0.211-0.512,0.211-0.768
			c0-0.247-0.069-0.458-0.21-0.586C13.297,14.123,13.088,14,12.818,14z"/>
		<polygon points="6.077,14.192 7.466,14.192 6.774,12.208 		"/>
		<path d="M23.252,1H4.748C2.678,1,1,2.678,1,4.748v18.504C1,25.321,2.678,27,4.748,27h18.504C25.321,27,27,25.321,27,23.252V4.748
			C27,2.678,25.321,1,23.252,1z M8.353,17l-0.536-2h-2.1l-0.535,2H3.881l2.285-6H7.4l2.293,6H8.353z M14.771,15.708
			c-0.087,0.212-0.226,0.434-0.412,0.587c-0.182,0.151-0.417,0.345-0.698,0.431C13.382,16.812,13.05,17,12.674,17H10v-6h2.826
			c0.536,0,0.976,0.005,1.305,0.255c0.341,0.26,0.514,0.53,0.514,1.041c0,0.312-0.079,0.584-0.234,0.81
			c-0.104,0.151-0.238,0.279-0.399,0.383c0.248,0.1,0.447,0.264,0.594,0.474c0.195,0.277,0.294,0.637,0.294,1.051
			C14.899,15.256,14.856,15.5,14.771,15.708z M20.659,14.277c-0.022,0.357-0.101,0.83-0.23,1.122
			c-0.131,0.295-0.311,0.554-0.534,0.77c-0.223,0.215-0.489,0.384-0.792,0.502c-0.298,0.117-0.634,0.176-0.997,0.176
			c-0.442,0-0.846-0.083-1.199-0.247c-0.35-0.162-0.652-0.389-0.9-0.674c-0.243-0.282-0.433-0.615-0.562-0.991
			c-0.129-0.375-0.194-0.777-0.194-1.199c0-0.417,0.065-0.817,0.194-1.191c0.13-0.376,0.319-0.709,0.562-0.991
			c0.246-0.284,0.549-0.511,0.899-0.677c0.354-0.167,0.759-0.25,1.2-0.25c0.33,0,0.646,0.052,0.94,0.144
			c0.295,0.091,0.56,0.238,0.786,0.415c0.229,0.179,0.416,0.42,0.557,0.671c0.14,0.253,0.229,0.591,0.262,0.916L20.665,13h-1.233
			l-0.024-0.184c-0.04-0.155-0.096-0.388-0.166-0.517c-0.066-0.125-0.153-0.233-0.259-0.324c-0.105-0.092-0.227-0.161-0.371-0.213
			c-0.144-0.051-0.314-0.077-0.506-0.077c-0.28,0-0.524,0.057-0.726,0.168c-0.202,0.112-0.37,0.264-0.497,0.452
			c-0.129,0.193-0.227,0.415-0.289,0.659c-0.063,0.25-0.096,0.508-0.096,0.768s0.032,0.518,0.096,0.768
			c0.062,0.245,0.16,0.465,0.289,0.659c0.127,0.188,0.295,0.337,0.497,0.448c0.2,0.111,0.444,0.164,0.726,0.164
			c0.206,0,0.387-0.044,0.539-0.113c0.156-0.07,0.29-0.186,0.397-0.307c0.112-0.123,0.201-0.307,0.266-0.474
			c0.065-0.171,0.108-0.428,0.129-0.623L19.448,14h1.219L20.659,14.277z M25.375,19l-0.349,1c-0.072,0-0.65-0.518-1.532-0.518
			S22.034,20,21.962,20l-0.349-1C21.657,19,22,18.425,23,18.383V9.607C22,9.533,21.657,9,21.613,9l0.349-1
			c0.072,0,0.65,0.518,1.532,0.518S24.954,8,25.026,8l0.349,1C25.331,9,25,9.53,24,9.606v8.777C25,18.427,25.331,19,25.375,19z"/>
	</g>
</g>
<g id="Layer_1">
</g>
</svg>
