<?xml version="1.0" encoding="iso-8859-1"?>
<!-- Generator: Adobe Illustrator 16.0.4, SVG Export Plug-In . SVG Version: 6.00 Build 0)  -->
<!DOCTYPE svg PUBLIC "-//W3C//DTD SVG 1.1//EN" "http://www.w3.org/Graphics/SVG/1.1/DTD/svg11.dtd">
<svg version="1.1" xmlns="http://www.w3.org/2000/svg" xmlns:xlink="http://www.w3.org/1999/xlink" x="0px" y="0px" width="28px"
	 height="28px" viewBox="0 0 28 28" style="enable-background:new 0 0 28 28;" xml:space="preserve">
<g id="text-box">
	<path style="fill:none;" d="M13.12,6.876c0.102-0.086,0.151-0.216,0.151-0.396c0-0.143-0.021-0.33-0.125-0.414
		c-0.097-0.08-0.253-0.12-0.465-0.12h-1.38v1.074h1.38C12.862,7.021,13.005,6.973,13.12,6.876z"/>
	<path style="fill:none;" d="M12.818,19H11v2h1.818c0.239,0,0.415-0.324,0.537-0.438c0.116-0.108,0.172-0.536,0.172-0.755
		c0-0.21-0.056-0.421-0.169-0.524C13.237,19.174,13.056,19,12.818,19z"/>
	<path style="fill:none;" d="M13.12,17.876c0.103-0.087,0.152-0.216,0.152-0.396c0-0.143-0.021-0.33-0.125-0.414
		c-0.097-0.079-0.253-0.119-0.465-0.119h-1.38v1.073h1.38C12.863,18.021,13.006,17.974,13.12,17.876z"/>
	<path style="fill:none;" d="M12.818,8H11v2h1.818c0.239,0,0.415-0.325,0.537-0.438c0.116-0.107,0.172-0.536,0.172-0.754
		c0-0.21-0.055-0.422-0.169-0.524C13.237,8.175,13.056,8,12.818,8z"/>
	<polygon style="fill:none;" points="6.016,19 7.578,19 6.774,17.219 	"/>
	<path style="fill:none;" d="M16.986,17.376c0.118-0.174,0.267-0.309,0.453-0.413c0.311-0.169,0.807-0.196,1.129-0.083
		c0.13,0.047,0.239,0.108,0.332,0.189c0.096,0.083,0.171,0.178,0.231,0.29c0.064,0.119,0.117,0.281,0.154,0.426L19.335,18h1.469
		l-0.028-0.304c-0.036-0.342-0.129-0.664-0.277-0.932c-0.148-0.267-0.347-0.504-0.589-0.693c-0.239-0.187-0.518-0.333-0.826-0.427
		c-0.722-0.225-1.586-0.188-2.231,0.118c-0.367,0.174-0.683,0.411-0.94,0.708c-0.254,0.294-0.451,0.641-0.586,1.031
		c-0.134,0.387-0.201,0.801-0.201,1.232c0,0.435,0.067,0.852,0.201,1.24c0.136,0.391,0.332,0.737,0.587,1.032
		c0.259,0.299,0.576,0.536,0.941,0.705c0.37,0.172,0.791,0.259,1.252,0.259c0.379,0,0.729-0.062,1.042-0.185
		c0.318-0.124,0.599-0.302,0.834-0.528s0.424-0.499,0.562-0.809c0.136-0.306,0.217-0.73,0.24-1.102L20.801,19h-1.466l-0.023,0.307
		c-0.019,0.186-0.059,0.396-0.121,0.559c-0.059,0.153-0.14,0.307-0.241,0.42c-0.097,0.107-0.216,0.205-0.356,0.269
		c-0.326,0.147-0.838,0.12-1.153-0.055c-0.187-0.104-0.335-0.236-0.452-0.41c-0.122-0.181-0.213-0.388-0.272-0.618
		c-0.061-0.24-0.092-0.488-0.092-0.737c0-0.251,0.031-0.498,0.092-0.736C16.773,17.767,16.865,17.558,16.986,17.376z"/>
	<path style="fill:none;" d="M14.251,18.467c0.101-0.086,0.188-0.183,0.263-0.29c0.17-0.247,0.256-0.544,0.256-0.881
		c0-0.552-0.189-0.793-0.564-1.078C13.854,15.951,13.39,16,12.826,16H10v5.65L7.486,16H6.08l-2.381,6h1.571l0.535-2h1.923l0.536,2
		h1.54h0.071h2.798c0.389,0,0.733-0.128,1.025-0.217c0.297-0.092,0.546-0.262,0.74-0.423c0.202-0.167,0.353-0.389,0.449-0.621
		c0.091-0.223,0.137-0.476,0.137-0.733c0-0.439-0.106-0.82-0.316-1.119C14.586,18.715,14.434,18.571,14.251,18.467z M6.016,19
		l0.758-1.781L7.578,19H6.016z M11.302,16.947h1.38c0.212,0,0.368,0.04,0.465,0.119c0.103,0.084,0.125,0.271,0.125,0.414
		c0,0.18-0.049,0.309-0.152,0.396c-0.114,0.098-0.257,0.145-0.438,0.145h-1.38V16.947z M13.354,20.562
		C13.233,20.676,13.057,21,12.818,21H11v-2h1.818c0.238,0,0.419,0.174,0.539,0.283c0.114,0.104,0.169,0.314,0.169,0.524
		C13.526,20.026,13.47,20.454,13.354,20.562z"/>
	<path style="fill:none;" d="M14.251,7.466c0.101-0.086,0.188-0.183,0.262-0.29c0.17-0.247,0.257-0.543,0.257-0.881
		c0-0.552-0.189-0.793-0.564-1.078C13.855,4.951,13.391,5,12.826,5H10v5.651L7.486,5H6.08l-2.381,6h1.571l0.535-2h1.923l0.536,2
		h1.54h0.071h2.798c0.389,0,0.733-0.127,1.025-0.217c0.297-0.091,0.546-0.261,0.74-0.423c0.202-0.166,0.353-0.389,0.449-0.621
		c0.091-0.223,0.137-0.476,0.137-0.733c0-0.44-0.106-0.82-0.316-1.12C14.586,7.715,14.434,7.571,14.251,7.466z M6.016,8l0.758-1.781
		L7.578,8H6.016z M11.302,5.947h1.38c0.211,0,0.368,0.04,0.465,0.12c0.103,0.084,0.125,0.271,0.125,0.414
		c0,0.18-0.05,0.31-0.151,0.396c-0.115,0.097-0.258,0.145-0.438,0.145h-1.38V5.947z M13.354,9.562C13.233,9.675,13.057,10,12.818,10
		H11V8h1.818c0.238,0,0.419,0.175,0.54,0.283c0.114,0.103,0.169,0.314,0.169,0.524C13.526,9.026,13.47,9.455,13.354,9.562z"/>
	<path style="fill:none;" d="M20.498,5.765c-0.149-0.267-0.347-0.504-0.589-0.694c-0.239-0.186-0.518-0.332-0.826-0.427
		c-0.716-0.223-1.582-0.187-2.231,0.118c-0.366,0.174-0.683,0.412-0.94,0.709c-0.254,0.294-0.451,0.641-0.586,1.032
		c-0.134,0.387-0.201,0.801-0.201,1.231c0,0.436,0.067,0.853,0.201,1.24c0.136,0.391,0.332,0.738,0.587,1.032
		c0.259,0.299,0.576,0.537,0.941,0.706c0.37,0.172,0.791,0.259,1.252,0.259c0.379,0,0.729-0.062,1.042-0.184
		c0.318-0.125,0.599-0.302,0.834-0.528c0.235-0.227,0.424-0.5,0.562-0.809c0.136-0.306,0.217-0.731,0.24-1.103L20.801,8h-1.466
		l-0.023,0.306c-0.019,0.184-0.06,0.399-0.121,0.561c-0.059,0.152-0.14,0.306-0.241,0.418c-0.097,0.108-0.216,0.205-0.356,0.269
		c-0.326,0.147-0.838,0.12-1.153-0.054c-0.187-0.104-0.335-0.236-0.452-0.409c-0.122-0.181-0.214-0.389-0.272-0.62
		c-0.061-0.24-0.092-0.487-0.092-0.736s0.031-0.498,0.092-0.737c0.059-0.23,0.15-0.439,0.271-0.62
		c0.118-0.174,0.267-0.309,0.454-0.413c0.308-0.17,0.81-0.196,1.129-0.083c0.129,0.046,0.237,0.108,0.332,0.19
		s0.17,0.176,0.23,0.289c0.065,0.121,0.116,0.279,0.154,0.426L19.335,7h1.469l-0.028-0.303C20.739,6.355,20.646,6.033,20.498,5.765z
		"/>
	<g>
		<polygon points="6.016,8 7.578,8 6.774,6.219 		"/>
		<path d="M12.818,19H11v2h1.818c0.239,0,0.415-0.324,0.537-0.438c0.116-0.108,0.172-0.536,0.172-0.755
			c0-0.21-0.056-0.421-0.169-0.524C13.237,19.174,13.056,19,12.818,19z"/>
		<path d="M13.12,17.876c0.103-0.087,0.152-0.216,0.152-0.396c0-0.143-0.021-0.33-0.125-0.414c-0.097-0.079-0.253-0.119-0.465-0.119
			h-1.38v1.073h1.38C12.863,18.021,13.006,17.974,13.12,17.876z"/>
		<path d="M12.818,8H11v2h1.818c0.239,0,0.415-0.325,0.537-0.438c0.116-0.107,0.172-0.536,0.172-0.754
			c0-0.21-0.055-0.422-0.169-0.524C13.237,8.175,13.056,8,12.818,8z"/>
		<path d="M13.12,6.876c0.102-0.086,0.151-0.216,0.151-0.396c0-0.143-0.021-0.33-0.125-0.414c-0.097-0.08-0.253-0.12-0.465-0.12
			h-1.38v1.074h1.38C12.862,7.021,13.005,6.973,13.12,6.876z"/>
		<path d="M23.252,1H4.748C2.678,1,1,2.678,1,4.748v18.504C1,25.322,2.678,27,4.748,27h18.504C25.322,27,27,25.322,27,23.252V4.748
			C27,2.678,25.322,1,23.252,1z M14.887,20.739c-0.096,0.232-0.247,0.454-0.449,0.621c-0.194,0.161-0.443,0.331-0.74,0.423
			C13.407,21.872,13.062,22,12.674,22H9.875H9.804h-1.54l-0.536-2H5.805l-0.535,2H3.699l2.381-6h1.406L10,21.65V16h2.826
			c0.564,0,1.028-0.049,1.38,0.218c0.375,0.285,0.564,0.526,0.564,1.078c0,0.337-0.086,0.634-0.256,0.881
			c-0.074,0.107-0.162,0.204-0.263,0.29c0.183,0.104,0.335,0.248,0.457,0.42c0.21,0.299,0.316,0.68,0.316,1.119
			C15.024,20.264,14.978,20.517,14.887,20.739z M14.887,9.739c-0.096,0.232-0.247,0.455-0.449,0.621
			c-0.194,0.162-0.443,0.332-0.74,0.423C13.407,10.873,13.062,11,12.674,11H9.875H9.804h-1.54L7.728,9H5.805l-0.535,2H3.699L6.08,5
			h1.406L10,10.651V5h2.826c0.564,0,1.029-0.049,1.38,0.218c0.375,0.285,0.564,0.526,0.564,1.078c0,0.337-0.086,0.634-0.257,0.881
			c-0.074,0.107-0.162,0.204-0.262,0.29c0.183,0.104,0.335,0.249,0.457,0.42c0.21,0.3,0.316,0.679,0.316,1.12
			C15.024,9.264,14.978,9.517,14.887,9.739z M16.715,19.471c0.06,0.23,0.15,0.438,0.272,0.618c0.117,0.174,0.266,0.307,0.452,0.41
			c0.315,0.175,0.827,0.202,1.153,0.055c0.141-0.063,0.26-0.161,0.356-0.269c0.102-0.113,0.183-0.267,0.241-0.42
			c0.062-0.163,0.103-0.373,0.121-0.559L19.335,19h1.466l-0.018,0.348c-0.023,0.371-0.104,0.796-0.24,1.102
			c-0.138,0.31-0.326,0.582-0.562,0.809s-0.516,0.404-0.834,0.528c-0.312,0.123-0.663,0.185-1.042,0.185
			c-0.461,0-0.882-0.087-1.252-0.259c-0.365-0.169-0.683-0.406-0.941-0.705c-0.255-0.295-0.451-0.642-0.587-1.032
			c-0.134-0.389-0.201-0.806-0.201-1.24c0-0.432,0.067-0.846,0.201-1.232c0.135-0.391,0.332-0.737,0.586-1.031
			c0.258-0.297,0.573-0.534,0.94-0.708c0.646-0.307,1.51-0.343,2.231-0.118c0.309,0.094,0.587,0.24,0.826,0.427
			c0.242,0.189,0.44,0.427,0.589,0.693c0.148,0.268,0.241,0.59,0.277,0.932L20.804,18h-1.469l-0.049-0.215
			c-0.037-0.145-0.09-0.307-0.154-0.426c-0.061-0.112-0.136-0.207-0.231-0.29c-0.093-0.081-0.202-0.143-0.332-0.189
			c-0.322-0.113-0.818-0.086-1.129,0.083c-0.187,0.104-0.335,0.239-0.453,0.413c-0.121,0.182-0.213,0.391-0.271,0.621
			c-0.061,0.238-0.092,0.485-0.092,0.736C16.623,18.982,16.654,19.23,16.715,19.471z M19.335,7l-0.049-0.214
			c-0.038-0.147-0.089-0.305-0.154-0.426c-0.061-0.113-0.136-0.208-0.23-0.289s-0.203-0.144-0.332-0.19
			c-0.319-0.113-0.821-0.087-1.129,0.083c-0.188,0.104-0.336,0.239-0.454,0.413c-0.121,0.181-0.213,0.39-0.271,0.62
			c-0.061,0.24-0.092,0.488-0.092,0.737s0.031,0.497,0.092,0.736c0.059,0.231,0.15,0.439,0.272,0.62
			c0.117,0.173,0.266,0.306,0.452,0.409c0.315,0.174,0.827,0.201,1.153,0.054c0.141-0.063,0.26-0.16,0.356-0.269
			c0.102-0.112,0.183-0.266,0.241-0.418c0.062-0.161,0.103-0.377,0.121-0.561L19.335,8h1.466l-0.018,0.347
			c-0.023,0.372-0.104,0.797-0.24,1.103c-0.138,0.309-0.326,0.582-0.562,0.809c-0.235,0.226-0.516,0.404-0.834,0.528
			c-0.312,0.122-0.663,0.184-1.042,0.184c-0.461,0-0.882-0.087-1.252-0.259c-0.365-0.169-0.683-0.406-0.941-0.706
			c-0.255-0.294-0.451-0.641-0.587-1.032c-0.134-0.388-0.201-0.805-0.201-1.24c0-0.431,0.067-0.845,0.201-1.231
			c0.135-0.391,0.332-0.738,0.586-1.032c0.258-0.297,0.574-0.535,0.94-0.709c0.649-0.305,1.516-0.341,2.231-0.118
			c0.309,0.096,0.587,0.242,0.826,0.427c0.242,0.19,0.439,0.428,0.589,0.694c0.148,0.268,0.241,0.591,0.277,0.933L20.804,7H19.335z
			 M25.375,24l-0.349,1c-0.072,0-0.65-0.518-1.532-0.518S22.034,25,21.962,25l-0.349-1C21.657,24,22,23.425,23,23.383v-8.775
			C22,14.533,21.657,14,21.613,14l0.349-1c0.072,0,0.65,0.518,1.532,0.518S24.954,13,25.026,13l0.349,1
			C25.331,14,25,14.53,24,14.606v8.777C25,23.427,25.331,24,25.375,24z"/>
		<polygon points="6.016,19 7.578,19 6.774,17.219 		"/>
	</g>
</g>
<g id="Layer_1">
</g>
</svg>
